<svg width="105" height="94" viewBox="0 0 105 94" fill="none" xmlns="http://www.w3.org/2000/svg">
<path d="M41.2738 87.0446C59.3052 70.9918 73.4098 58.1597 89.0986 44.3846C94.2782 39.5417 97.5587 34.8016 98.9399 30.1646C101.357 21.4143 97.6406 13.8368 91.1705 7.90724C84.9549 2.34291 78.3078 -0.284708 71.2291 0.0244737C64.1503 0.333655 57.158 3.52801 50.2518 9.60754L6.22524 49.1761L13.4767 55.5132L57.5032 16.0992C62.0208 12.254 67.3968 8.62892 73.5599 9.14373C82.9501 10.3239 91.2429 20.613 89.0988 27.8461C86.3801 34.2635 82.6321 37.1904 77.4447 41.8342C61.6649 55.9248 49.3611 66.8212 34.0226 80.5527C28.2581 85.2683 24.5301 86.545 19.1745 82.0984C16.4121 79.6253 15.2035 77.2038 15.5488 74.8338C15.932 72.0686 17.6806 70.156 19.6924 68.3421L59.9203 32.3284C61.7581 30.6802 65.9435 27.5167 67.6897 28.928C69.0294 31.7105 65.5792 34.3663 63.8915 35.8834L26.9437 68.9604L34.0224 75.4522L71.1427 42.3753C77.5363 36.4717 82.1297 29.2576 74.941 22.591C66.9906 16.4819 58.615 20.5603 52.6688 25.8369L12.4409 61.8505C8.29733 65.5599 5.93762 69.5787 5.36222 73.9066C4.90827 79.9738 7.96386 84.8441 12.0956 88.5902C15.9793 92.0481 20.175 93.9634 25.39 94C31.6599 93.7753 37.8248 90.0782 41.2738 87.0446Z" fill="#113055"/>
</svg>
