<svg width="318" height="91" viewBox="0 0 318 91" fill="none" xmlns="http://www.w3.org/2000/svg">
<path fill-rule="evenodd" clip-rule="evenodd" d="M137.593 13.5556C138.009 13.9151 138.369 14.33 138.675 14.8C138.916 15.1441 139.115 15.5148 139.273 15.9121C139.683 16.6862 139.925 17.4442 139.925 18.15H139.719C139.723 18.257 139.725 18.3654 139.725 18.475C139.725 20.525 139.075 22.175 137.775 23.425C136.475 24.675 134.725 25.3 132.525 25.3H124.275C123.525 25.3 123.15 24.8 123.15 23.8V13.225C123.15 12.9332 123.195 12.6839 123.284 12.4772C112.644 5.22037 108.749 2.50618 108.13 2.05376C108.102 2.03361 108.078 2.01116 108.055 1.98688C108.018 2.16011 108 2.35615 108 2.575V54.925C108 55.525 108.125 55.975 108.375 56.275C108.625 56.525 109.075 56.65 109.725 56.65H120.9C122.4 56.65 123.15 56 123.15 54.7V36.85C123.15 36.35 123.425 36.1 123.975 36.1H134.7C138.8 36.1 142.375 35.425 145.425 34.075C148.475 32.675 150.85 30.675 152.55 28.075C154.3 25.475 155.175 22.35 155.175 18.7C155.175 14.7 154.175 11.4 152.175 8.8C150.175 6.15 147.5 4.2 144.15 2.95C140.8 1.65 137.075 1 132.975 1H113.337C119.121 1.8851 124.971 4.34799 129.685 7.22314C132.65 9.0314 135.187 11.0156 136.989 12.8979C137.2 13.1182 137.401 13.3375 137.593 13.5556ZM109.292 1.65271C110.782 2.69931 115.01 5.62396 124.076 11.8067C124.264 11.7522 124.48 11.725 124.725 11.725H132.075C132.997 11.725 133.858 11.8361 134.659 12.0584C133.132 10.7206 131.265 9.35776 129.165 8.07687C123.44 4.58521 116.069 1.75226 109.292 1.65271Z" fill="#113055"/>
<path fill-rule="evenodd" clip-rule="evenodd" d="M86.5927 13.5556C87.0087 13.9151 87.3695 14.33 87.675 14.8C87.9158 15.1441 88.1153 15.5148 88.2732 15.9121C88.6832 16.6862 88.925 17.4442 88.925 18.15H88.719C88.723 18.257 88.725 18.3654 88.725 18.475C88.725 20.525 88.075 22.175 86.775 23.425C85.475 24.675 83.725 25.3 81.525 25.3H73.275C72.525 25.3 72.15 24.8 72.15 23.8V13.225C72.15 12.9332 72.1947 12.6839 72.2841 12.4772C61.6444 5.22037 57.7494 2.50618 57.1301 2.05376C57.1025 2.03361 57.0776 2.01116 57.0554 1.98688C57.0185 2.16011 57 2.35615 57 2.575V54.925C57 55.525 57.125 55.975 57.375 56.275C57.625 56.525 58.075 56.65 58.725 56.65H69.9C71.4 56.65 72.15 56 72.15 54.7V36.85C72.15 36.35 72.425 36.1 72.975 36.1H83.7C87.8 36.1 91.375 35.425 94.425 34.075C97.475 32.675 99.85 30.675 101.55 28.075C103.3 25.475 104.175 22.35 104.175 18.7C104.175 14.7 103.175 11.4 101.175 8.8C99.175 6.15 96.5 4.2 93.15 2.95C89.8 1.65 86.075 1 81.975 1H62.3374C68.1209 1.8851 73.9715 4.34799 78.6854 7.22314C81.6501 9.0314 84.1867 11.0156 85.9892 12.8979C86.2001 13.1182 86.4015 13.3375 86.5927 13.5556ZM58.2921 1.65271C59.7818 2.69931 64.0099 5.62396 73.0757 11.8067C73.2636 11.7522 73.48 11.725 73.725 11.725H81.075C81.9968 11.725 82.858 11.8361 83.6586 12.0584C82.1321 10.7206 80.2647 9.35776 78.1646 8.07687C72.4399 4.58521 65.0692 1.75226 58.2921 1.65271Z" fill="#113055"/>
<path fill-rule="evenodd" clip-rule="evenodd" d="M278.65 57.15C273.5 57.15 268.975 55.975 265.075 53.625C261.225 51.225 258.25 47.9 256.15 43.65C254.05 39.35 253 34.4 253 28.8C253 22.95 254.1 17.875 256.3 13.575C258.55 9.275 261.675 5.95 265.675 3.6C269.675 1.2 274.275 0 279.475 0C283.825 0 287.625 0.800001 290.875 2.4C294.125 3.95 296.75 5.975 298.75 8.475C300.8 10.925 302.1 13.475 302.65 16.125C302.85 17.075 302.875 17.7 302.725 18C302.575 18.25 302.225 18.425 301.675 18.525L290.275 20.25C289.725 20.25 289.375 20.15 289.225 19.95C289.075 19.7 288.95 19.35 288.85 18.9C288.6 17.4 288.075 16.025 287.275 14.775C286.475 13.475 285.4 12.425 284.05 11.625C282.7 10.825 281.075 10.425 279.175 10.425C277.025 10.425 275.175 11.025 273.625 12.225C272.075 13.375 270.875 15.25 270.025 17.85C269.225 20.45 268.825 23.95 268.825 28.35C268.825 33 269.275 36.65 270.175 39.3C271.075 41.95 272.325 43.85 273.925 45C275.575 46.1 277.5 46.65 279.7 46.65C281 46.65 282.15 46.475 283.15 46.125C284.2 45.775 285.1 45.3 285.85 44.7C286.65 44.05 287.3 43.325 287.8 42.525C288.1 42.0615 288.363 41.5831 288.588 41.0898L296.325 41.1692L296.25 52.5366L295 50.25C294.9 50.05 294.775 49.95 294.625 49.95C294.525 49.95 294.4 50.075 294.25 50.325C293.3 51.325 292.175 52.35 290.875 53.4C289.625 54.45 288 55.35 286 56.1C284.05 56.8 281.6 57.15 278.65 57.15Z" fill="#113055"/>
<path d="M307.912 33.3417L299.287 57.8123L281.999 34.6467L307.912 33.3417Z" fill="#00B2CA"/>
<path d="M176.5 43H190.5C191.052 43 191.5 43.4477 191.5 44V49C191.5 52.3137 188.814 55 185.5 55H176.5C175.948 55 175.5 54.5523 175.5 54V44C175.5 43.4477 175.948 43 176.5 43Z" fill="#00B2CA"/>
<path d="M159 2H174V55H166.5C162.358 55 159 51.6421 159 47.5V2Z" fill="#113055"/>
<path d="M33.0812 9.70881C34.9999 13.5934 36.0176 18.0982 36.4557 22.1769C36.7019 24.1623 36.825 26.42 36.825 28.95C36.825 35.25 36 39.775 34.35 42.525C32.75 45.275 30.125 46.65 26.475 46.65C23.2462 46.65 20.7957 45.6306 19.1238 43.5919C19.4388 44.592 19.7972 45.5645 20.2034 46.496C21.6297 49.7674 23.6272 52.4939 26.3594 54.1517C28.9172 55.7038 32.1707 56.3508 36.3135 55.5652C37.7317 55.0629 39.0772 54.4411 40.35 53.7C44.3 51.35 47.35 48.05 49.5 43.8C51.65 39.55 52.725 34.525 52.725 28.725C52.725 22.875 51.625 17.8 49.425 13.5C47.275 9.2 44.225 5.875 40.275 3.525C36.375 1.175 31.75 0 26.4 0C24.9115 0 23.4762 0.0926809 22.0942 0.278044C23.8227 0.661633 25.3679 1.3248 26.7443 2.21049C29.5273 4.00142 31.5846 6.67892 33.0812 9.70881Z" fill="#113055"/>
<path d="M31.2371 56.8092C29.6939 57.0364 28.0815 57.15 26.4 57.15C21.05 57.15 16.375 56 12.375 53.7C8.425 51.4 5.375 48.125 3.225 43.875C1.075 39.575 0 34.525 0 28.725C0 22.875 1.1 17.8 3.3 13.5C5.5 9.2 8.575 5.875 12.525 3.525C14.4753 2.36469 16.5902 1.49083 18.8696 0.903425C21.7747 0.961791 24.1921 1.75728 26.2031 3.05142C28.7915 4.71709 30.7426 7.23227 32.1846 10.1517C32.7436 11.2834 33.2243 12.4722 33.6347 13.6898C31.9737 11.5133 29.5621 10.425 26.4 10.425C22.75 10.425 20.075 11.875 18.375 14.775C16.725 17.675 15.9 22.4 15.9 28.95C15.9 33.2112 16.2774 36.6604 17.0323 39.2975C17.5301 41.9389 18.2592 44.539 19.2867 46.8957C20.7637 50.2832 22.8744 53.2068 25.8406 55.0067C27.4092 55.9585 29.2006 56.586 31.2371 56.8092Z" fill="#113055"/>
<path d="M229.081 11.7088C231 15.5934 232.018 20.0982 232.456 24.1769C232.702 26.1623 232.825 28.42 232.825 30.95C232.825 37.25 232 41.775 230.35 44.525C228.75 47.275 226.125 48.65 222.475 48.65C219.246 48.65 216.796 47.6306 215.124 45.5919C215.439 46.592 215.797 47.5645 216.203 48.496C217.63 51.7674 219.627 54.4939 222.359 56.1517C224.917 57.7038 228.171 58.3508 232.314 57.5652C233.732 57.0629 235.077 56.4411 236.35 55.7C240.3 53.35 243.35 50.05 245.5 45.8C247.65 41.55 248.725 36.525 248.725 30.725C248.725 24.875 247.625 19.8 245.425 15.5C243.275 11.2 240.225 7.875 236.275 5.525C232.375 3.175 227.75 2 222.4 2C220.911 2 219.476 2.09268 218.094 2.27804C219.823 2.66163 221.368 3.3248 222.744 4.21049C225.527 6.00142 227.585 8.67892 229.081 11.7088Z" fill="#113055"/>
<path d="M227.237 58.8092C225.694 59.0364 224.082 59.15 222.4 59.15C217.05 59.15 212.375 58 208.375 55.7C204.425 53.4 201.375 50.125 199.225 45.875C197.075 41.575 196 36.525 196 30.725C196 24.875 197.1 19.8 199.3 15.5C201.5 11.2 204.575 7.875 208.525 5.525C210.475 4.36469 212.59 3.49083 214.87 2.90342C217.775 2.96179 220.192 3.75728 222.203 5.05142C224.792 6.71709 226.743 9.23227 228.185 12.1517C228.744 13.2834 229.224 14.4722 229.635 15.6898C227.974 13.5133 225.562 12.425 222.4 12.425C218.75 12.425 216.075 13.875 214.375 16.775C212.725 19.675 211.9 24.4 211.9 30.95C211.9 35.2112 212.277 38.6604 213.032 41.2975C213.53 43.9389 214.259 46.539 215.287 48.8957C216.764 52.2832 218.874 55.2068 221.841 57.0067C223.409 57.9585 225.201 58.586 227.237 58.8092Z" fill="#113055"/>
<path d="M32.35 67.625L30.05 85H24.15L22.7 72L21.1 85H15.325L13.1 67.625H17.5L18.675 81.65L20.425 67.625H25.1L26.675 81.65L28.125 67.625H32.35ZM44.5883 78.125C44.5883 78.5417 44.5549 79.0333 44.4883 79.6H37.1383C37.2383 80.65 37.4799 81.3667 37.8633 81.75C38.2466 82.1333 38.8049 82.325 39.5383 82.325C40.0049 82.325 40.4549 82.2417 40.8883 82.075C41.3383 81.8917 41.8299 81.6083 42.3633 81.225L44.1133 83.575C42.7133 84.825 41.0633 85.45 39.1633 85.45C37.0799 85.45 35.4966 84.8167 34.4133 83.55C33.3299 82.2833 32.7883 80.5667 32.7883 78.4C32.7883 77.0167 33.0133 75.7833 33.4633 74.7C33.9133 73.6167 34.5799 72.7667 35.4633 72.15C36.3633 71.5333 37.4549 71.225 38.7383 71.225C40.5383 71.225 41.9633 71.825 43.0133 73.025C44.0633 74.2083 44.5883 75.9083 44.5883 78.125ZM40.3133 76.9C40.3133 75.9333 40.1966 75.2167 39.9633 74.75C39.7466 74.2667 39.3549 74.025 38.7883 74.025C38.2716 74.025 37.8799 74.25 37.6133 74.7C37.3466 75.1333 37.1799 75.925 37.1133 77.075H40.3133V76.9ZM49.7068 85.45C48.5068 85.45 47.5818 85.1083 46.9318 84.425C46.2818 83.7417 45.9568 82.7917 45.9568 81.575V66.425L50.3068 65.975V81.4C50.3068 81.8167 50.4902 82.025 50.8568 82.025C51.0568 82.025 51.2152 82 51.3318 81.95L52.1068 85C51.4402 85.3 50.6402 85.45 49.7068 85.45ZM58.5939 71.225C59.4606 71.225 60.2439 71.3667 60.9439 71.65C61.6439 71.9333 62.2939 72.3583 62.8939 72.925L61.0939 75.375C60.3606 74.7917 59.6523 74.5 58.9689 74.5C58.2689 74.5 57.7439 74.7917 57.3939 75.375C57.0439 75.9583 56.8689 76.975 56.8689 78.425C56.8689 79.8083 57.0439 80.7667 57.3939 81.3C57.7606 81.8333 58.2773 82.1 58.9439 82.1C59.2939 82.1 59.6189 82.0417 59.9189 81.925C60.2189 81.7917 60.5856 81.5833 61.0189 81.3L62.8939 83.85C61.6939 84.9167 60.2856 85.45 58.6689 85.45C56.6856 85.45 55.1356 84.8333 54.0189 83.6C52.9023 82.3667 52.3439 80.65 52.3439 78.45C52.3439 77 52.5939 75.7333 53.0939 74.65C53.6106 73.55 54.3356 72.7083 55.2689 72.125C56.2189 71.525 57.3273 71.225 58.5939 71.225ZM68.9188 71.225C70.8354 71.225 72.3354 71.8333 73.4188 73.05C74.5188 74.25 75.0687 76.0167 75.0687 78.35C75.0687 80.5833 74.5188 82.325 73.4188 83.575C72.3354 84.825 70.8354 85.45 68.9188 85.45C66.9854 85.45 65.4771 84.85 64.3938 83.65C63.3104 82.4333 62.7688 80.6583 62.7688 78.325C62.7688 76.0917 63.3104 74.35 64.3938 73.1C65.4938 71.85 67.0021 71.225 68.9188 71.225ZM68.9188 74.4C68.3354 74.4 67.9104 74.7 67.6438 75.3C67.3771 75.9 67.2438 76.9083 67.2438 78.325C67.2438 79.7917 67.3688 80.825 67.6188 81.425C67.8854 82.0083 68.3188 82.3 68.9188 82.3C69.5021 82.3 69.9271 82 70.1938 81.4C70.4604 80.8 70.5938 79.7833 70.5938 78.35C70.5938 76.9 70.4604 75.8833 70.1938 75.3C69.9271 74.7 69.5021 74.4 68.9188 74.4ZM90.5471 71.225C91.4804 71.225 92.2304 71.575 92.7971 72.275C93.3804 72.975 93.6721 73.9167 93.6721 75.1V85H89.3721V75.675C89.3721 74.875 89.1471 74.475 88.6971 74.475C88.2137 74.475 87.7554 74.9083 87.3221 75.775V85H83.0471V75.675C83.0471 74.875 82.8221 74.475 82.3721 74.475C81.8887 74.475 81.4304 74.9083 80.9971 75.775V85H76.6971V71.675H80.4971L80.7721 73.175C81.2554 72.5083 81.7721 72.0167 82.3221 71.7C82.8887 71.3833 83.5221 71.225 84.2221 71.225C84.8554 71.225 85.4137 71.4 85.8971 71.75C86.3804 72.1 86.7471 72.6 86.9971 73.25C87.4804 72.5667 88.0054 72.0583 88.5721 71.725C89.1554 71.3917 89.8137 71.225 90.5471 71.225ZM106.991 78.125C106.991 78.5417 106.957 79.0333 106.891 79.6H99.5406C99.6406 80.65 99.8823 81.3667 100.266 81.75C100.649 82.1333 101.207 82.325 101.941 82.325C102.407 82.325 102.857 82.2417 103.291 82.075C103.741 81.8917 104.232 81.6083 104.766 81.225L106.516 83.575C105.116 84.825 103.466 85.45 101.566 85.45C99.4823 85.45 97.899 84.8167 96.8156 83.55C95.7323 82.2833 95.1906 80.5667 95.1906 78.4C95.1906 77.0167 95.4156 75.7833 95.8656 74.7C96.3156 73.6167 96.9823 72.7667 97.8656 72.15C98.7656 71.5333 99.8573 71.225 101.141 71.225C102.941 71.225 104.366 71.825 105.416 73.025C106.466 74.2083 106.991 75.9083 106.991 78.125ZM102.716 76.9C102.716 75.9333 102.599 75.2167 102.366 74.75C102.149 74.2667 101.757 74.025 101.191 74.025C100.674 74.025 100.282 74.25 100.016 74.7C99.749 75.1333 99.5823 75.925 99.5156 77.075H102.716V76.9ZM121.714 84.375C121.247 84.725 120.697 84.9917 120.064 85.175C119.447 85.3583 118.822 85.45 118.189 85.45C116.722 85.45 115.631 85.05 114.914 84.25C114.197 83.4333 113.839 82.2833 113.839 80.8V74.675H112.389V71.675H113.839V68.85L118.189 68.325V71.675H120.889L120.464 74.675H118.189V80.75C118.189 81.6 118.514 82.025 119.164 82.025C119.514 82.025 119.897 81.9167 120.314 81.7L121.714 84.375ZM127.635 71.225C129.551 71.225 131.051 71.8333 132.135 73.05C133.235 74.25 133.785 76.0167 133.785 78.35C133.785 80.5833 133.235 82.325 132.135 83.575C131.051 84.825 129.551 85.45 127.635 85.45C125.701 85.45 124.193 84.85 123.11 83.65C122.026 82.4333 121.485 80.6583 121.485 78.325C121.485 76.0917 122.026 74.35 123.11 73.1C124.21 71.85 125.718 71.225 127.635 71.225ZM127.635 74.4C127.051 74.4 126.626 74.7 126.36 75.3C126.093 75.9 125.96 76.9083 125.96 78.325C125.96 79.7917 126.085 80.825 126.335 81.425C126.601 82.0083 127.035 82.3 127.635 82.3C128.218 82.3 128.643 82 128.91 81.4C129.176 80.8 129.31 79.7833 129.31 78.35C129.31 76.9 129.176 75.8833 128.91 75.3C128.643 74.7 128.218 74.4 127.635 74.4ZM147.968 85C146.984 88.55 144.526 90.425 140.593 90.625L140.143 87.65C141.293 87.5 142.151 87.225 142.718 86.825C143.301 86.4417 143.759 85.8333 144.093 85H142.518L139.093 71.675H143.568L145.268 82.275L147.318 71.675H151.693L147.968 85ZM157.932 71.225C159.849 71.225 161.349 71.8333 162.432 73.05C163.532 74.25 164.082 76.0167 164.082 78.35C164.082 80.5833 163.532 82.325 162.432 83.575C161.349 84.825 159.849 85.45 157.932 85.45C155.999 85.45 154.491 84.85 153.407 83.65C152.324 82.4333 151.782 80.6583 151.782 78.325C151.782 76.0917 152.324 74.35 153.407 73.1C154.507 71.85 156.016 71.225 157.932 71.225ZM157.932 74.4C157.349 74.4 156.924 74.7 156.657 75.3C156.391 75.9 156.257 76.9083 156.257 78.325C156.257 79.7917 156.382 80.825 156.632 81.425C156.899 82.0083 157.332 82.3 157.932 82.3C158.516 82.3 158.941 82 159.207 81.4C159.474 80.8 159.607 79.7833 159.607 78.35C159.607 76.9 159.474 75.8833 159.207 75.3C158.941 74.7 158.516 74.4 157.932 74.4ZM176.486 85H172.686L172.511 83.525C171.661 84.8083 170.486 85.45 168.986 85.45C167.902 85.45 167.069 85.0917 166.486 84.375C165.902 83.6417 165.611 82.6583 165.611 81.425V71.675H169.961V81.075C169.961 81.5083 170.019 81.8167 170.136 82C170.269 82.1833 170.469 82.275 170.736 82.275C171.269 82.275 171.736 81.8667 172.136 81.05V71.675H176.486V85ZM185.851 71.275C186.234 71.275 186.626 71.35 187.026 71.5L186.326 75.675C185.976 75.575 185.626 75.525 185.276 75.525C184.609 75.525 184.109 75.7667 183.776 76.25C183.442 76.7167 183.176 77.4167 182.976 78.35V85H178.626V71.675H182.426L182.751 73.95C183.051 73.1 183.467 72.4417 184.001 71.975C184.534 71.5083 185.151 71.275 185.851 71.275ZM200.584 71.225C201.617 71.225 202.425 71.5667 203.009 72.25C203.592 72.9333 203.884 73.8833 203.884 75.1V85H199.534V75.675C199.534 75.2417 199.467 74.9333 199.334 74.75C199.217 74.5667 199.042 74.475 198.809 74.475C198.325 74.475 197.8 74.9417 197.234 75.875V85H192.884V71.675H196.684L196.984 73.15C197.5 72.5 198.042 72.0167 198.609 71.7C199.192 71.3833 199.85 71.225 200.584 71.225ZM217.22 78.125C217.22 78.5417 217.187 79.0333 217.12 79.6H209.77C209.87 80.65 210.112 81.3667 210.495 81.75C210.878 82.1333 211.437 82.325 212.17 82.325C212.637 82.325 213.087 82.2417 213.52 82.075C213.97 81.8917 214.462 81.6083 214.995 81.225L216.745 83.575C215.345 84.825 213.695 85.45 211.795 85.45C209.712 85.45 208.128 84.8167 207.045 83.55C205.962 82.2833 205.42 80.5667 205.42 78.4C205.42 77.0167 205.645 75.7833 206.095 74.7C206.545 73.6167 207.212 72.7667 208.095 72.15C208.995 71.5333 210.087 71.225 211.37 71.225C213.17 71.225 214.595 71.825 215.645 73.025C216.695 74.2083 217.22 75.9083 217.22 78.125ZM212.945 76.9C212.945 75.9333 212.828 75.2167 212.595 74.75C212.378 74.2667 211.987 74.025 211.42 74.025C210.903 74.025 210.512 74.25 210.245 74.7C209.978 75.1333 209.812 75.925 209.745 77.075H212.945V76.9ZM235.064 71.675L232.689 85H227.664L226.339 75.575L225.064 85H220.089L217.664 71.675H221.914L222.839 81.7L224.439 71.675H228.464L229.889 81.7L230.939 71.675H235.064ZM257.5 71.675L255.125 85H250.1L248.775 75.575L247.5 85H242.525L240.1 71.675H244.35L245.275 81.7L246.875 71.675H250.9L252.325 81.7L253.375 71.675H257.5ZM264.207 71.225C266.124 71.225 267.624 71.8333 268.707 73.05C269.807 74.25 270.357 76.0167 270.357 78.35C270.357 80.5833 269.807 82.325 268.707 83.575C267.624 84.825 266.124 85.45 264.207 85.45C262.274 85.45 260.765 84.85 259.682 83.65C258.599 82.4333 258.057 80.6583 258.057 78.325C258.057 76.0917 258.599 74.35 259.682 73.1C260.782 71.85 262.29 71.225 264.207 71.225ZM264.207 74.4C263.624 74.4 263.199 74.7 262.932 75.3C262.665 75.9 262.532 76.9083 262.532 78.325C262.532 79.7917 262.657 80.825 262.907 81.425C263.174 82.0083 263.607 82.3 264.207 82.3C264.79 82.3 265.215 82 265.482 81.4C265.749 80.8 265.882 79.7833 265.882 78.35C265.882 76.9 265.749 75.8833 265.482 75.3C265.215 74.7 264.79 74.4 264.207 74.4ZM279.21 71.275C279.593 71.275 279.985 71.35 280.385 71.5L279.685 75.675C279.335 75.575 278.985 75.525 278.635 75.525C277.968 75.525 277.468 75.7667 277.135 76.25C276.802 76.7167 276.535 77.4167 276.335 78.35V85H271.985V71.675H275.785L276.11 73.95C276.41 73.1 276.827 72.4417 277.36 71.975C277.893 71.5083 278.51 71.275 279.21 71.275ZM285.588 65.975V85H281.238V66.425L285.588 65.975ZM293.263 71.675L289.963 77.525L293.463 85H288.788L285.688 77.725L289.038 71.675H293.263ZM298.594 67.625L298.019 78.475H294.619L294.019 67.625H298.594ZM296.319 80.7C296.986 80.7 297.544 80.9417 297.994 81.425C298.444 81.8917 298.669 82.4417 298.669 83.075C298.669 83.7417 298.444 84.3083 297.994 84.775C297.561 85.225 297.003 85.45 296.319 85.45C295.636 85.45 295.069 85.225 294.619 84.775C294.186 84.3083 293.969 83.7417 293.969 83.075C293.969 82.4417 294.194 81.8917 294.644 81.425C295.094 80.9417 295.653 80.7 296.319 80.7Z" fill="#00B2CA"/>
</svg>
