<svg width="177" height="35" viewBox="0 0 177 35" fill="none" xmlns="http://www.w3.org/2000/svg">
<path fill-rule="evenodd" clip-rule="evenodd" d="M78.7316 8.38272C78.9705 8.59152 79.178 8.83272 79.3541 9.10633C79.4928 9.30656 79.6079 9.52245 79.6994 9.75401C79.936 10.2048 80.0764 10.6468 80.0784 11.0588L79.9606 11.0594C79.9632 11.1219 79.9646 11.1851 79.965 11.2492C79.9707 12.4461 79.6036 13.4112 78.8636 14.1446C78.1236 14.878 77.1244 15.2478 75.8662 15.2538L71.1478 15.2765C70.7188 15.2786 70.5029 14.9877 70.5001 14.4038L70.4705 8.22941C70.4696 8.05901 70.4945 7.91336 70.5451 7.79244C64.4395 3.58465 62.2042 2.01064 61.8487 1.74819C61.8329 1.7365 61.8186 1.72346 61.8058 1.70935C61.7852 1.81059 61.7752 1.92511 61.7758 2.05288L61.9227 32.6182C61.9244 32.9686 61.9971 33.231 62.141 33.4054C62.2846 33.5507 62.5424 33.6225 62.9141 33.6207L69.3054 33.59C70.1633 33.5858 70.5905 33.2043 70.5868 32.4452L70.5367 22.0232C70.5353 21.7313 70.6919 21.5846 71.0065 21.5831L77.1404 21.5536C79.4854 21.5423 81.5281 21.1384 83.2687 20.3418C85.0092 19.516 86.3619 18.3417 87.3269 16.819C88.3205 15.2962 88.8122 13.4692 88.8019 11.3381C88.7907 9.0026 88.2095 7.07859 87.0583 5.56604C85.907 4.02429 84.3717 2.8931 82.4522 2.17248C80.5326 1.42266 78.4003 1.05338 76.0554 1.06465L64.824 1.11862C68.1342 1.61951 71.4873 3.04143 74.1914 4.70717C75.8921 5.75481 77.3484 6.90636 78.3846 8.00041C78.5059 8.12841 78.6216 8.25594 78.7316 8.38272ZM62.5122 1.51084C63.3671 2.11782 65.7935 3.8138 70.9959 7.39875C71.1032 7.36645 71.2269 7.34996 71.367 7.34928L75.5707 7.32908C76.0979 7.32655 76.5908 7.38908 77.0493 7.51667C76.1725 6.73974 75.1007 5.94916 73.896 5.20706C70.612 3.18414 66.3885 1.55033 62.5122 1.51084Z" fill="#113055"/>
<path fill-rule="evenodd" clip-rule="evenodd" d="M49.5631 8.52289C49.802 8.73169 50.0095 8.97289 50.1856 9.2465C50.3243 9.44673 50.4394 9.66262 50.5309 9.89418C50.7675 10.345 50.9079 10.7869 50.9099 11.199L50.7921 11.1996C50.7947 11.2621 50.7961 11.3253 50.7964 11.3893C50.8022 12.5862 50.4351 13.5514 49.6951 14.2848C48.9551 15.0182 47.9559 15.3879 46.6977 15.394L41.9793 15.4167C41.5503 15.4187 41.3344 15.1278 41.3316 14.544L41.302 8.36958C41.3011 8.19918 41.326 8.05353 41.3766 7.93261C35.271 3.72482 33.0357 2.15081 32.6802 1.88836C32.6644 1.87667 32.6501 1.86363 32.6373 1.84951C32.6167 1.95076 32.6067 2.06527 32.6073 2.19305L32.7542 32.7584C32.7559 33.1087 32.8286 33.3711 32.9725 33.5456C33.1161 33.6909 33.3739 33.7626 33.7456 33.7608L40.1369 33.7301C40.9948 33.726 41.422 33.3444 41.4183 32.5854L41.3682 22.1634C41.3668 21.8715 41.5234 21.7247 41.838 21.7232L47.9719 21.6938C50.3169 21.6825 52.3596 21.2786 54.1002 20.482C55.8407 19.6562 57.1934 18.4819 58.1584 16.9592C59.152 15.4363 59.6437 13.6093 59.6334 11.4782C59.6222 9.14276 59.041 7.21876 57.8898 5.7062C56.7385 4.16446 55.2032 3.03327 53.2837 2.31265C51.3641 1.56283 49.2318 1.19355 46.8869 1.20482L35.6555 1.25879C38.9657 1.75968 42.3188 3.18159 45.0229 4.84734C46.7236 5.89497 48.1799 7.04652 49.2161 8.14058C49.3374 8.26858 49.4531 8.3961 49.5631 8.52289ZM33.3437 1.651C34.1986 2.25798 36.625 3.95397 41.8274 7.53892C41.9347 7.50661 42.0584 7.49012 42.1985 7.48945L46.4022 7.46925C46.9294 7.46672 47.4223 7.52925 47.8808 7.65683C47.004 6.87991 45.9322 6.08933 44.7275 5.34723C41.4435 3.32431 37.22 1.6905 33.3437 1.651Z" fill="#113055"/>
<path d="M159.529 33.4483C156.584 33.4625 153.992 32.7889 151.755 31.4275C149.547 30.0368 147.836 28.1036 146.623 25.628C145.41 23.1231 144.795 20.2359 144.779 16.9662C144.763 13.5506 145.378 10.5845 146.624 8.06782C147.899 5.55101 149.677 3.60107 151.958 2.21799C154.239 0.805724 156.866 0.0924429 159.841 0.0781513C162.328 0.0661959 164.504 0.522845 166.367 1.4481C168.23 2.34416 169.737 3.51927 170.888 4.97344C172.068 6.39827 172.818 7.88356 173.14 9.42929C173.257 9.98341 173.273 10.3483 173.188 10.5238C173.103 10.6702 172.904 10.7733 172.589 10.8332L166.074 11.8717C165.76 11.8733 165.559 11.8158 165.473 11.6995C165.386 11.5539 165.314 11.3499 165.255 11.0874C165.108 10.2123 164.804 9.41096 164.343 8.68333C163.882 7.9265 163.264 7.3164 162.49 6.85301C161.715 6.38963 160.785 6.16055 159.698 6.16577C158.469 6.17168 157.412 6.52709 156.529 7.23198C155.646 7.90769 154.965 9.00574 154.486 10.5261C154.036 12.0464 153.817 14.091 153.829 16.66C153.842 19.375 154.11 21.5049 154.632 23.0496C155.154 24.5944 155.874 25.7003 156.793 26.3673C157.739 27.0051 158.842 27.3209 160.1 27.3149C160.844 27.3113 161.501 27.2059 162.072 26.9988C162.671 26.7916 163.185 26.5118 163.612 26.1594C164.068 25.7777 164.437 25.3526 164.721 24.8841C164.891 24.6127 165.04 24.3326 165.168 24.044L169.593 24.0691L169.582 30.7063L168.861 29.3747C168.803 29.2582 168.731 29.2002 168.645 29.2006C168.588 29.2009 168.517 29.2742 168.432 29.4206C167.891 30.007 167.251 30.6086 166.51 31.2252C165.798 31.8417 164.872 32.3717 163.73 32.8151C162.616 33.2291 161.216 33.4402 159.529 33.4483Z" fill="#113055"/>
<path d="M176.198 19.4671L171.334 33.7783L161.381 20.3002L176.198 19.4671Z" fill="#00B2CA"/>
<path d="M101.067 25.4674L109.074 25.4289C109.389 25.4274 109.647 25.6876 109.648 26.01L109.662 28.9293C109.672 30.8641 108.143 32.4399 106.248 32.449L101.1 32.4738C100.784 32.4753 100.527 32.2151 100.525 31.8926L100.497 26.054C100.496 25.7315 100.751 25.4689 101.067 25.4674Z" fill="#113055"/>
<path d="M90.9427 1.57699L99.5217 1.53577L99.6704 32.4806L95.3809 32.5012C93.0119 32.5126 91.082 30.5613 91.0704 28.1429L90.9427 1.57699Z" fill="#113055"/>
<path d="M18.9474 6.42397C20.0557 8.68676 20.6504 11.3142 20.9124 13.6944C21.0588 14.8529 21.1355 16.1708 21.1426 17.6479C21.1603 21.3263 20.7011 23.9706 19.7652 25.5807C18.8578 27.1908 17.3603 28.0008 15.2728 28.0108C13.4261 28.0197 12.0218 27.4312 11.0598 26.2455C11.2428 26.8285 11.4505 27.3954 11.6854 27.9381C12.5103 29.8443 13.6604 31.4307 15.2277 32.3911C16.6949 33.2903 18.5575 33.6591 20.9247 33.189C21.7344 32.8918 22.5022 32.5251 23.2281 32.0889C25.4806 30.706 27.2158 28.7708 28.4335 26.2835C29.6512 23.7962 30.2519 20.8593 30.2357 17.4729C30.2193 14.0573 29.5759 11.0972 28.3056 8.5926C27.0639 6.08788 25.3101 4.15491 23.0444 2.79369C20.8073 1.43232 18.1588 0.758992 15.099 0.773695C14.2477 0.777786 13.427 0.835844 12.6371 0.94787C13.6268 1.16708 14.5124 1.55003 15.3021 2.06338C16.8988 3.10139 18.083 4.65904 18.9474 6.42397Z" fill="#113055"/>
<path d="M18.0249 33.9293C17.1429 34.0662 16.221 34.137 15.2593 34.1416C12.1995 34.1563 9.5225 33.4977 7.22832 32.1658C4.96274 30.8338 3.20916 28.93 1.96758 26.4545C0.725863 23.9498 0.0968675 21.0042 0.0805943 17.6178C0.0641808 14.2022 0.679066 11.236 1.92525 8.71937C3.17144 6.2027 4.9208 4.25289 7.17333 2.86995C8.28552 2.18713 9.49262 1.6711 10.7946 1.32187C12.4563 1.34796 13.8411 1.80578 14.9949 2.55585C16.48 3.52127 17.6029 4.98443 18.4359 6.68501C18.7588 7.34427 19.037 8.03702 19.2752 8.74681C18.3191 7.48058 16.9367 6.8518 15.1282 6.86049C13.0407 6.87052 11.5148 7.72448 10.5507 9.42236C9.61514 11.1201 9.15656 13.8811 9.17494 17.7055C9.18689 20.1934 9.41243 22.2062 9.85156 23.7439C10.1437 25.2847 10.568 26.8008 11.1622 28.174C12.0165 30.1478 13.2319 31.849 14.9334 32.8917C15.8332 33.4431 16.8595 33.8046 18.0249 33.9293Z" fill="#113055"/>
<path d="M131.052 7.05302C132.16 9.31581 132.755 11.9433 133.017 14.3235C133.163 15.482 133.24 16.7998 133.247 18.277C133.264 21.9554 132.805 24.5996 131.869 26.2098C130.962 27.8198 129.464 28.6298 127.377 28.6399C125.53 28.6487 124.126 28.0603 123.164 26.8745C123.347 27.4576 123.555 28.0244 123.79 28.5672C124.614 30.4733 125.765 32.0597 127.332 33.0202C128.799 33.9193 130.662 34.2882 133.029 33.8181C133.839 33.5209 134.606 33.1542 135.332 32.718C137.585 31.335 139.32 29.3999 140.538 26.9126C141.755 24.4252 142.356 21.4883 142.34 18.1019C142.323 14.6863 141.68 11.7262 140.41 9.22165C139.168 6.71693 137.414 4.78396 135.149 3.42274C132.911 2.06137 130.263 1.38804 127.203 1.40275C126.352 1.40684 125.531 1.46489 124.741 1.57692C125.731 1.79613 126.617 2.17908 127.406 2.69243C129.003 3.73044 130.187 5.28809 131.052 7.05302Z" fill="#113055"/>
<path d="M130.129 34.5584C129.247 34.6953 128.325 34.766 127.364 34.7707C124.304 34.7854 121.627 34.1268 119.332 32.7949C117.067 31.4628 115.313 29.5591 114.072 27.0835C112.83 24.5788 112.201 21.6333 112.185 18.2468C112.168 14.8312 112.783 11.8651 114.029 9.34842C115.276 6.83175 117.025 4.88194 119.277 3.499C120.39 2.81618 121.597 2.30015 122.899 1.95092C124.56 1.97701 125.945 2.43483 127.099 3.1849C128.584 4.15032 129.707 5.61348 130.54 7.31406C130.863 7.97332 131.141 8.66607 131.379 9.37586C130.423 8.10963 129.041 7.48085 127.232 7.48954C125.145 7.49957 123.619 8.35353 122.655 10.0514C121.719 11.7492 121.261 14.5102 121.279 18.3345C121.291 20.8225 121.517 22.8353 121.956 24.3729C122.248 25.9138 122.672 27.4299 123.266 28.8031C124.121 30.7769 125.336 32.478 127.038 33.5208C127.937 34.0722 128.964 34.4337 130.129 34.5584Z" fill="#113055"/>
</svg>
