<svg width="303" height="60" viewBox="0 0 303 60" fill="none" xmlns="http://www.w3.org/2000/svg">
<path d="M278.65 57.15C273.5 57.15 268.975 55.975 265.075 53.625C261.225 51.225 258.25 47.9 256.15 43.65C254.05 39.35 253 34.4 253 28.8C253 22.95 254.1 17.875 256.3 13.575C258.55 9.275 261.675 5.95 265.675 3.6C269.675 1.2 274.275 0 279.475 0C283.825 0 287.625 0.800001 290.875 2.4C294.125 3.95 296.75 5.975 298.75 8.475C300.8 10.925 302.1 13.475 302.65 16.125C302.85 17.075 302.875 17.7 302.725 18C302.575 18.25 302.225 18.425 301.675 18.525L290.275 20.25C289.725 20.25 289.375 20.15 289.225 19.95C289.075 19.7 288.95 19.35 288.85 18.9C288.6 17.4 288.075 16.025 287.275 14.775C286.475 13.475 285.4 12.425 284.05 11.625C282.7 10.825 281.075 10.425 279.175 10.425C277.025 10.425 275.175 11.025 273.625 12.225C272.075 13.375 270.875 15.25 270.025 17.85C269.225 20.45 268.825 23.95 268.825 28.35C268.825 33 269.275 36.65 270.175 39.3C271.075 41.95 272.325 43.85 273.925 45C275.575 46.1 277.5 46.65 279.7 46.65C281 46.65 282.15 46.475 283.15 46.125C284.2 45.775 285.1 45.3 285.85 44.7C286.397 44.2553 286.875 43.7754 287.281 43.2604C287.321 43.312 287.362 43.3649 287.404 43.419C288.568 44.9334 290.408 47.4223 293.217 51.3568C292.512 52.027 291.732 52.7081 290.875 53.4C289.625 54.45 288 55.35 286 56.1C284.05 56.8 281.6 57.15 278.65 57.15Z" fill="#113055"/>
<path d="M87.675 14.8C87.3695 14.33 87.0087 13.9151 86.5927 13.5556C86.4015 13.3375 86.2001 13.1182 85.9892 12.8979C84.1867 11.0156 81.6501 9.0314 78.6854 7.22314C73.9715 4.34799 68.1209 1.8851 62.3374 1H81.975C86.075 1 89.8 1.65 93.15 2.95C96.5 4.2 99.175 6.15 101.175 8.8C103.175 11.4 104.175 14.7 104.175 18.7C104.175 22.35 103.3 25.475 101.55 28.075C99.85 30.675 97.475 32.675 94.425 34.075C91.375 35.425 87.8 36.1 83.7 36.1H72.975C72.425 36.1 72.15 36.35 72.15 36.85V54.7C72.15 56 71.4 56.65 69.9 56.65H58.725C58.075 56.65 57.625 56.525 57.375 56.275C57.125 55.975 57 55.525 57 54.925V2.575C57 2.35615 57.0185 2.16011 57.0554 1.98688C57.0776 2.01116 57.1025 2.03361 57.1301 2.05376C57.7494 2.50618 61.6444 5.22037 72.2841 12.4772C72.1947 12.6839 72.15 12.9332 72.15 13.225V23.8C72.15 24.8 72.525 25.3 73.275 25.3H81.525C83.725 25.3 85.475 24.675 86.775 23.425C88.075 22.175 88.725 20.525 88.725 18.475C88.725 18.3654 88.723 18.257 88.719 18.15H88.925C88.925 17.4442 88.6832 16.6861 88.2732 15.9121C88.1153 15.5148 87.9158 15.1441 87.675 14.8Z" fill="#113055"/>
<path d="M137.593 13.5556C138.009 13.9151 138.369 14.33 138.675 14.8C138.916 15.1441 139.115 15.5148 139.273 15.9121C139.683 16.6861 139.925 17.4442 139.925 18.15H139.719C139.723 18.257 139.725 18.3654 139.725 18.475C139.725 20.525 139.075 22.175 137.775 23.425C136.475 24.675 134.725 25.3 132.525 25.3H124.275C123.525 25.3 123.15 24.8 123.15 23.8V13.225C123.15 12.9332 123.195 12.6839 123.284 12.4772C112.644 5.22037 108.749 2.50618 108.13 2.05376C108.102 2.03361 108.078 2.01116 108.055 1.98688C108.018 2.16011 108 2.35615 108 2.575V54.925C108 55.525 108.125 55.975 108.375 56.275C108.625 56.525 109.075 56.65 109.725 56.65H120.9C122.4 56.65 123.15 56 123.15 54.7V36.85C123.15 36.35 123.425 36.1 123.975 36.1H134.7C138.8 36.1 142.375 35.425 145.425 34.075C148.475 32.675 150.85 30.675 152.55 28.075C154.3 25.475 155.175 22.35 155.175 18.7C155.175 14.7 154.175 11.4 152.175 8.8C150.175 6.15 147.5 4.2 144.15 2.95C140.8 1.65 137.075 1 132.975 1H113.337C119.121 1.8851 124.971 4.34799 129.685 7.22314C132.65 9.0314 135.187 11.0156 136.989 12.8979C137.2 13.1182 137.401 13.3375 137.593 13.5556Z" fill="#113055"/>
<path d="M174 2H159V47.5C159 51.6421 162.358 55 166.5 55H174V2Z" fill="#113055"/>
<path d="M26.4 57.15C28.0815 57.15 29.6939 57.0364 31.2371 56.8092C29.2006 56.586 27.4092 55.9585 25.8406 55.0067C22.8744 53.2068 20.7637 50.2832 19.2867 46.8957C18.2592 44.539 17.5301 41.9389 17.0323 39.2975C16.2774 36.6604 15.9 33.2112 15.9 28.95C15.9 22.4 16.725 17.675 18.375 14.775C20.075 11.875 22.75 10.425 26.4 10.425C29.5621 10.425 31.9737 11.5133 33.6347 13.6898C33.2243 12.4722 32.7436 11.2834 32.1846 10.1517C30.7426 7.23227 28.7915 4.71709 26.2031 3.05142C24.1921 1.75728 21.7747 0.961791 18.8696 0.903425C16.5902 1.49083 14.4753 2.36469 12.525 3.525C8.575 5.875 5.5 9.2 3.3 13.5C1.1 17.8 0 22.875 0 28.725C0 34.525 1.075 39.575 3.225 43.875C5.375 48.125 8.425 51.4 12.375 53.7C16.375 56 21.05 57.15 26.4 57.15Z" fill="#113055"/>
<path d="M222.4 59.15C224.082 59.15 225.694 59.0364 227.237 58.8092C225.201 58.586 223.409 57.9585 221.841 57.0067C218.874 55.2068 216.764 52.2832 215.287 48.8957C214.259 46.539 213.53 43.9389 213.032 41.2975C212.277 38.6604 211.9 35.2112 211.9 30.95C211.9 24.4 212.725 19.675 214.375 16.775C216.075 13.875 218.75 12.425 222.4 12.425C225.562 12.425 227.974 13.5133 229.635 15.6898C229.224 14.4722 228.744 13.2834 228.185 12.1517C226.743 9.23227 224.792 6.71709 222.203 5.05142C220.192 3.75728 217.775 2.96179 214.87 2.90342C212.59 3.49083 210.475 4.36469 208.525 5.525C204.575 7.875 201.5 11.2 199.3 15.5C197.1 19.8 196 24.875 196 30.725C196 36.525 197.075 41.575 199.225 45.875C201.375 50.125 204.425 53.4 208.375 55.7C212.375 58 217.05 59.15 222.4 59.15Z" fill="#113055"/>
<path d="M36.4557 22.1769C36.0176 18.0982 34.9999 13.5934 33.0812 9.70881C31.5846 6.67892 29.5273 4.00142 26.7443 2.21049C25.3679 1.3248 23.8227 0.661633 22.0942 0.278044C23.4762 0.0926809 24.9115 0 26.4 0C31.75 0 36.375 1.175 40.275 3.525C44.225 5.875 47.275 9.2 49.425 13.5C51.625 17.8 52.725 22.875 52.725 28.725C52.725 34.525 51.65 39.55 49.5 43.8C47.35 48.05 44.3 51.35 40.35 53.7C39.0772 54.4411 37.7317 55.0629 36.3135 55.5652C32.1707 56.3508 28.9172 55.7038 26.3594 54.1517C23.6272 52.4939 21.6297 49.7674 20.2034 46.496C19.7972 45.5645 19.4388 44.592 19.1238 43.5919C20.7957 45.6306 23.2462 46.65 26.475 46.65C30.125 46.65 32.75 45.275 34.35 42.525C36 39.775 36.825 35.25 36.825 28.95C36.825 26.42 36.7019 24.1623 36.4557 22.1769Z" fill="#00B2CA"/>
<path d="M58.2921 1.65271C59.7818 2.69931 64.0099 5.62396 73.0757 11.8067C73.2636 11.7522 73.48 11.725 73.725 11.725H81.075C81.9968 11.725 82.858 11.8361 83.6586 12.0584C82.1321 10.7206 80.2647 9.35776 78.1646 8.07687C72.4399 4.58521 65.0692 1.75226 58.2921 1.65271Z" fill="#00B2CA"/>
<path d="M109.292 1.65271C110.782 2.69931 115.01 5.62396 124.076 11.8067C124.264 11.7522 124.48 11.725 124.725 11.725H132.075C132.997 11.725 133.858 11.8361 134.659 12.0584C133.132 10.7206 131.265 9.35776 129.165 8.07687C123.44 4.58521 116.069 1.75226 109.292 1.65271Z" fill="#00B2CA"/>
<path d="M190.5 43H176.5C175.948 43 175.5 43.4477 175.5 44V54C175.5 54.5523 175.948 55 176.5 55H185.5C188.814 55 191.5 52.3137 191.5 49V44C191.5 43.4477 191.052 43 190.5 43Z" fill="#00B2CA"/>
<path d="M232.456 24.1769C232.018 20.0982 231 15.5934 229.081 11.7088C227.585 8.67892 225.527 6.00142 222.744 4.21049C221.368 3.3248 219.823 2.66163 218.094 2.27804C219.476 2.09268 220.911 2 222.4 2C227.75 2 232.375 3.175 236.275 5.525C240.225 7.875 243.275 11.2 245.425 15.5C247.625 19.8 248.725 24.875 248.725 30.725C248.725 36.525 247.65 41.55 245.5 45.8C243.35 50.05 240.3 53.35 236.35 55.7C235.077 56.4411 233.732 57.0629 232.314 57.5652C228.171 58.3508 224.917 57.7038 222.359 56.1517C219.627 54.4939 217.63 51.7674 216.203 48.496C215.797 47.5645 215.439 46.592 215.124 45.5919C216.796 47.6306 219.246 48.65 222.475 48.65C226.125 48.65 228.75 47.275 230.35 44.525C232 41.775 232.825 37.25 232.825 30.95C232.825 28.42 232.702 26.1623 232.456 24.1769Z" fill="#00B2CA"/>
<path d="M295.5 52.5L302.5 59.15V33H281L287.719 42.1946C287.865 42.3799 288.023 42.5844 288.196 42.8095C289.552 44.5734 291.899 47.4231 295.5 52.5Z" fill="#00B2CA"/>
</svg>
